<?xml version="1.0" encoding="UTF-8" standalone="no"?>
<!-- Created with Inkscape (http://www.inkscape.org/) -->

<svg
    xmlns:dc="http://purl.org/dc/elements/1.1/"
    xmlns:cc="http://creativecommons.org/ns#"
    xmlns:rdf="http://www.w3.org/1999/02/22-rdf-syntax-ns#"
    xmlns:svg="http://www.w3.org/2000/svg"
    xmlns="http://www.w3.org/2000/svg"
    xmlns:sodipodi="http://sodipodi.sourceforge.net/DTD/sodipodi-0.dtd"
    xmlns:inkscape="http://www.inkscape.org/namespaces/inkscape"
    width="883.29"
    height="492.31"
    version="1.1"
    viewBox="0 0 883.28961 492.3093"
    xml:space="preserve"
    id="svg374"
    sodipodi:docname="Dataset Preparation Stages and Production Schedule.svg"
    inkscape:version="0.92.1 r15371"><sodipodi:namedview
    pagecolor="#ffffff"
    bordercolor="#666666"
    borderopacity="1"
    objecttolerance="10"
    gridtolerance="10"
    guidetolerance="10"
    inkscape:pageopacity="0"
    inkscape:pageshadow="2"
    inkscape:window-width="1920"
    inkscape:window-height="1017"
    id="namedview376"
    showgrid="false"
    inkscape:zoom="1.7224919"
    inkscape:cx="441.64499"
    inkscape:cy="269.37717"
    inkscape:window-x="1912"
    inkscape:window-y="-8"
    inkscape:window-maximized="1"
    inkscape:current-layer="svg374"/>
    <metadata id="metadata10">
        <rdf:RDF>
            <cc:Work rdf:about="">
                <dc:format>image/svg+xml</dc:format><dc:type rdf:resource="http://purl.org/dc/dcmitype/StillImage"/><dc:title/></cc:Work>
        </rdf:RDF>
    </metadata>
    <defs id="defs108">
        <clipPath id="clipPath3782"><path d="m76.8 95.28h643.2v23.88h-643.2z" style="clip-rule:evenodd" id="path12"/></clipPath>
        <clipPath id="clipPath3794"><path d="m42 48h678v390h-678z" style="clip-rule:evenodd" id="path15"/></clipPath>
        <clipPath id="clipPath3806"><path d="m252 154.8h468v19.92h-468z" style="clip-rule:evenodd" id="path18"/></clipPath>
        <clipPath id="clipPath3818"><path d="m42 48h678v390h-678z" style="clip-rule:evenodd" id="path21"/></clipPath>
        <clipPath id="clipPath3830"><path d="m42 48h678v390h-678z" style="clip-rule:evenodd" id="path24"/></clipPath>
        <clipPath id="clipPath3842"><path d="m42 48h678v390h-678z" style="clip-rule:evenodd" id="path27"/></clipPath>
        <clipPath id="clipPath3854"><path d="m108.36 210h611.64v23.76h-611.64z" style="clip-rule:evenodd" id="path30"/></clipPath>
        <clipPath id="clipPath3866"><path d="m42 48h678v390h-678z" style="clip-rule:evenodd" id="path33"/></clipPath>
        <clipPath id="clipPath3878"><path d="m42 48h678v390h-678z" style="clip-rule:evenodd" id="path36"/></clipPath>
        <clipPath id="clipPath3890"><path d="m42 48h678v390h-678z" style="clip-rule:evenodd" id="path39"/></clipPath>
        <clipPath id="clipPath3902"><path d="m42 48h678v390h-678z" style="clip-rule:evenodd" id="path42"/></clipPath>
        <clipPath id="clipPath3914"><path d="m42 48h678v390h-678z" style="clip-rule:evenodd" id="path45"/></clipPath>
        <clipPath id="clipPath3926"><path d="m42 48h678v390h-678z" style="clip-rule:evenodd" id="path48"/></clipPath>
        <clipPath id="clipPath3938"><path d="m42 48h678v390h-678z" style="clip-rule:evenodd" id="path51"/></clipPath>
        <clipPath id="clipPath3950"><path d="m42 48h678v390h-678z" style="clip-rule:evenodd" id="path54"/></clipPath>
        <clipPath id="clipPath3962"><path d="m42 48h678v390h-678z" style="clip-rule:evenodd" id="path57"/></clipPath>
        <clipPath id="clipPath3974"><path d="m42 323.64h678v18.84h-678z" style="clip-rule:evenodd" id="path60"/></clipPath>
        <clipPath id="clipPath3986"><path d="m42 48h678v390h-678z" style="clip-rule:evenodd" id="path63"/></clipPath>
        <clipPath id="clipPath3998"><path d="m42 48h678v390h-678z" style="clip-rule:evenodd" id="path66"/></clipPath>
        <clipPath id="clipPath4010"><path d="m42 48h678v390h-678z" style="clip-rule:evenodd" id="path69"/></clipPath>
        <clipPath id="clipPath4022"><path d="m42 378.96h299.4v22.44h-299.4z" style="clip-rule:evenodd" id="path72"/></clipPath>
        <clipPath id="clipPath4034"><path d="m42 48h678v390h-678z" style="clip-rule:evenodd" id="path75"/></clipPath>
        <clipPath id="clipPath4046"><path d="m42 48h678v390h-678z" style="clip-rule:evenodd" id="path78"/></clipPath>
        <clipPath id="clipPath4058"><path d="m42 48h678v390h-678z" style="clip-rule:evenodd" id="path81"/></clipPath>
        <clipPath id="clipPath4070"><path d="m42 48h678v390h-678z" style="clip-rule:evenodd" id="path84"/></clipPath>
        <clipPath id="clipPath4082"><path d="m42 48h678v390h-678z" style="clip-rule:evenodd" id="path87"/></clipPath>
        <clipPath id="clipPath4094"><path d="m42 48h678v390h-678z" style="clip-rule:evenodd" id="path90"/></clipPath>
        <clipPath id="clipPath4106"><path d="m42 48h678v390h-678z" style="clip-rule:evenodd" id="path93"/></clipPath>
        <clipPath id="clipPath4118"><path d="m42 48h678v390h-678z" style="clip-rule:evenodd" id="path96"/></clipPath>
        <clipPath id="clipPath4130"><path d="m42 48h678v390h-678z" style="clip-rule:evenodd" id="path99"/></clipPath>
        <clipPath id="clipPath4142"><path d="m42 48h678v390h-678z" style="clip-rule:evenodd" id="path102"/></clipPath>
        <clipPath id="clipPath4154"><path d="m42 48h678v390h-678z" style="clip-rule:evenodd" id="path105"/></clipPath>
    </defs>
    <g transform="matrix(1.3333 0 0 -1.3333 -15.466 697.04)" id="g372"><path
        d="m14.1 524.28v-336.6m58.8 336.6v-336.6m58.8 336.6v-336.6m58.8 336.6v-336.6m58.8 336.6v-336.6m58.92 336.6v-336.6m58.8 336.6v-336.6m58.8 336.6v-336.6m58.8 336.6v-336.6"
        style="fill:none;stroke-linejoin:round;stroke-miterlimit:10;stroke-width:.72;stroke:#d9d9d9"
        id="path110"/><path style="fill:#4f81bd" d="m 484.62,196.08 h -29.4 v 11.16 h 29.4 z" id="path400"/><path style="fill:#4f81bd" d="m 455.22,224.04 h -29.4 v 11.28 h 29.4 z" id="path398"/><path style="fill:#4f81bd" d="m 455.22,252.12 h -29.4 v 11.28 h 29.4 z" id="path396"/><path style="fill:#4f81bd" d="m 425.82,280.2 h -88.2 v 11.28 h 88.2 z" id="path394"/><path style="fill:#4f81bd" d="m 425.82,308.28 h -117.6 v 11.16 h 117.6 z" id="path392"/><path style="fill:#4f81bd" d="M 308.22,336.36 H 249.3 v 11.16 h 58.92 z" id="path390"/><path style="fill:#4f81bd" d="m 249.3,364.32 h -88.2 v 11.28 h 88.2 z" id="path388"/><path style="fill:#4f81bd" d="m 249.3,392.4 h -88.2 v 11.28 h 88.2 z" id="path386"/><path style="fill:#4f81bd" d="m 161.1,420.48 h -29.4 v 11.16 h 29.4 z" id="path384"/><path style="fill:#4f81bd" d="M 161.1,448.56 H 72.9 v 11.16 h 88.2 z" id="path382"/><path style="fill:#4f81bd" d="M 72.9,476.52 H 43.5 v 11.28 h 29.4 z" id="path380"/><path style="fill:#4f81bd" d="M 72.9,504.6 H 14.1 v 11.28 h 58.8 z" id="path112"/><path d="m14.1 187.68h470.52" style="fill:none;stroke-linejoin:round;stroke-miterlimit:10;stroke-width:.72;stroke:#ddd9c3" id="path114"/>
        <g transform="translate(-37.5,93)" id="g122">
            <g clip-path="url(#clipPath3782)" id="g120">
                <text transform="matrix(1,0,0,-1,536.83,103.37)" style="fill:#404040;font-family:Calibri;font-size:11.04px;font-weight:bold" id="text118">
                    <tspan
                        x="0 5.87328 11.7576 16.184641 20.01552 22.77552 28.65984 33.925919 36.211201 42.09552 47.361599 49.85664 55.38768 61.614239 66.76992 69.055199 74.939522 80.823837 83.451363 90.406563 95.816162 99.647041 105.05664 107.45232 113.3256 118.72416 122.55504 127.96464 130.71359 136.59792 141.864 147.74832"
                        y="0"
                        id="tspan116">Posting by TBS on Data Catalogue</tspan>
                </text>
            </g>
        </g>
        <g transform="translate(-37.5,93)" id="g130">
            <g clip-path="url(#clipPath3794)" id="g128">
                <text transform="matrix(1,0,0,-1,504.77,132.91)" style="fill:#404040;font-family:Calibri;font-size:11.04px;font-weight:bold" id="text126">
                    <tspan x="0 5.87328 11.7576 16.184641 20.01552 22.77552 28.65984 33.925919 36.211201 42.09552 47.979839 50.607361 57.672958 63.192959 69.077278 71.472961 78.439201 84.312477" y="0" id="tspan124">Posting on Geo Hub</tspan>
                </text>
            </g>
        </g>
        <g transform="translate(-37.5,93)" id="g138">
            <g clip-path="url(#clipPath3806)" id="g136">
                <text transform="matrix(1,0,0,-1,502.44,160.94)" style="fill:#404040;font-family:Calibri;font-size:11.04px;font-weight:bold" id="text134">
                    <tspan x="0 5.1556802 11.04 16.92432 25.899839 28.670879 33.097919 37.52496 40.273918 46.158241 52.042561 54.43824 58.269119 64.153442 66.549118 72.058083 78.284637" y="0" id="tspan132">Submission to TBS</tspan>
                </text>
            </g>
        </g>
        <g transform="translate(-37.5,93)" id="g146">
            <g clip-path="url(#clipPath3818)" id="g144">
                <text transform="matrix(1,0,0,-1,473.78,190.54)" style="fill:#404040;font-family:Calibri;font-size:11.04px;font-weight:bold" id="text142">
                    <tspan x="0 5.87328 11.7576 20.766239 29.774879 32.76672 35.051998 40.925282 43.68528 49.083839 54.968159" y="0" id="tspan140">Comm. Plan
                    </tspan>
                </text>
            </g>
        </g>
        <g transform="translate(-37.5,93)" id="g154">
            <g clip-path="url(#clipPath3830)" id="g152">
                <text transform="matrix(1,0,0,-1,531.29,190.54)" style="fill:#404040;font-family:Calibri;font-size:11.04px;font-weight:bold" id="text150">
                    <tspan x="0" y="0" id="tspan148">–</tspan>
                </text>
            </g>
        </g>
        <g transform="translate(-37.5,93)" id="g162">
            <g clip-path="url(#clipPath3842)" id="g160">
                <text transform="matrix(1,0,0,-1,539.21,190.54)" style="fill:#404040;font-family:Calibri;font-size:11.04px;font-weight:bold" id="text158">
                    <tspan
                        x="0 5.87328 11.7576 16.184641 20.01552 22.77552 28.65984 33.925919 36.211201 42.09552 47.979839 50.607361 57.562561 62.97216 66.80304 72.212639 74.608322 80.481598 85.880157 89.711037 95.120644 97.869598 103.75392 109.02 114.90432 120.42432 122.82 130.6032 133.13136 140.19696 145.71696 151.60127 153.99696 160.9632 166.83649"
                        y="0"
                        id="tspan156">Posting on Data Catalogue &amp; Geo Hub</tspan>
                </text>
            </g>
        </g>
        <g transform="translate(-37.5,93)" id="g170">
            <g clip-path="url(#clipPath3854)" id="g168">
                <text transform="matrix(1,0,0,-1,474.12,218.09)" style="fill:#404040;font-family:Calibri;font-size:11.04px;font-weight:bold" id="text166">
                    <tspan
                        x="0 6.9552002 12.3648 16.195681 21.60528 26.03232 31.55232 35.383202 37.789921 44.00544 49.558559 54.813599 57.562561 63.082561 71.351517 76.142883 82.833122 88.761597 94.62384 98.576157 104.46048 109.72656 115.12512 117.87408"
                        y="0"
                        id="tspan164">Dataset Review/Approvals</tspan>
                </text>
            </g>
        </g>
        <g transform="translate(-37.5,93)" id="g178">
            <g clip-path="url(#clipPath3866)" id="g176">
                <text transform="matrix(1,0,0,-1,369.55,246.14)" style="fill:#404040;font-family:Calibri;font-size:11.04px;font-weight:bold" id="text174">
                    <tspan x="0 6.9552002 12.3648 16.195681 21.60528 26.03232 31.55232 35.383202 37.789921 44.00544 49.558559 54.813599 57.562561 63.082561 71.351517" y="0" id="tspan172">Dataset Review
                    </tspan>
                </text>
            </g>
        </g>
        <g transform="translate(-37.5,93)" id="g186">
            <g clip-path="url(#clipPath3878)" id="g184">
                <text transform="matrix(1,0,0,-1,443.23,246.14)" style="fill:#404040;font-family:Calibri;font-size:11.04px;font-weight:bold" id="text182">
                    <tspan x="0" y="0" id="tspan180">-</tspan>
                </text>
            </g>
        </g>
        <g transform="translate(-37.5,93)" id="g194">
            <g clip-path="url(#clipPath3890)" id="g192">
                <text transform="matrix(1,0,0,-1,449.11,246.14)" style="fill:#404040;font-family:Calibri;font-size:11.04px;font-weight:bold" id="text190">
                    <tspan x="0 5.1556802 10.67568 14.628 19.894079 22.64304 27.31296 32.832958 35.11824 40.99152 44.94384 50.828159 56.094238 58.843201 64.727524 70.24752 74.199837" y="0" id="tspan188">Service Providers</tspan>
                </text>
            </g>
        </g>
        <g transform="translate(-37.5,93)" id="g202">
            <g clip-path="url(#clipPath3902)" id="g200">
                <text transform="matrix(1,0,0,-1,299.78,275.21)" style="fill:#404040;font-family:Calibri;font-size:11.04px;font-weight:bold" id="text198">
                    <tspan x="0 6.9552002 12.3648 16.195681 21.60528 26.03232 31.55232 35.383202 37.789921 44.00544 49.558559 54.813599 57.562561 63.082561 71.351517" y="0" id="tspan196">Dataset Review
                    </tspan>
                </text>
            </g>
        </g>
        <g transform="translate(-37.5,93)" id="g210">
            <g clip-path="url(#clipPath3914)" id="g208">
                <text transform="matrix(1,0,0,-1,373.46,275.21)" style="fill:#404040;font-family:Calibri;font-size:11.04px;font-weight:bold" id="text206">
                    <tspan x="0" y="0" id="tspan204">-</tspan>
                </text>
            </g>
        </g>
        <g transform="translate(-37.5,93)" id="g218">
            <g clip-path="url(#clipPath3926)" id="g216">
                <text transform="matrix(1,0,0,-1,379.34,275.21)" style="fill:#404040;font-family:Calibri;font-size:11.04px;font-weight:bold" id="text214">
                    <tspan x="0 6.6902399 9.4723196 12.22128 14.50656 19.662239 23.49312 28.902719 32.391361" y="0" id="tspan212">All Staff</tspan>
                </text>
            </g>
        </g>
        <g transform="translate(-37.5,93)" id="g226">
            <g clip-path="url(#clipPath3938)" id="g224">
                <text transform="matrix(1,0,0,-1,300.6,299.9)" style="fill:#404040;font-family:Calibri;font-size:11.04px;font-weight:bold" id="text222">
                    <tspan x="0 5.87328 11.7576 20.73312 29.74176 32.733601 35.018879 40.892159 43.652161 49.05072 54.93504" y="0" id="tspan220">Comm. Plan
                    </tspan>
                </text>
            </g>
        </g>
        <g transform="translate(-37.5,93)" id="g234">
            <g clip-path="url(#clipPath3950)" id="g232">
                <text transform="matrix(1,0,0,-1,358.08,299.9)" style="fill:#404040;font-family:Calibri;font-size:11.04px;font-weight:bold" id="text230">
                    <tspan x="0" y="0" id="tspan228">–</tspan>
                </text>
            </g>
        </g>
        <g transform="translate(-37.5,93)" id="g242">
            <g clip-path="url(#clipPath3962)" id="g240">
                <text transform="matrix(1,0,0,-1,366,299.9)" style="fill:#404040;font-family:Calibri;font-size:11.04px;font-weight:bold" id="text238">
                    <tspan x="0 5.87328 11.7576 16.184641 20.01552 22.77552 28.65984 33.925919 36.211201 42.09552 47.979839 50.607361 55.763039 61.636318 64.043037 69.916321 75.800636 79.75296 83.583839 88.993439" y="0" id="tspan236">Posting on SP Portal</tspan>
                </text>
            </g>
        </g>
        <g transform="translate(-37.5,93)" id="g250">
            <g clip-path="url(#clipPath3974)" id="g248">
                <text transform="matrix(1,0,0,-1,213.7,329.3)" style="fill:#404040;font-family:Calibri;font-size:11.04px;font-weight:bold" id="text246">
                    <tspan
                        x="0 2.9918399 8.8761597 11.62512 15.456 18.216 23.614559 26.36352 28.6488 34.864319 37.635361 42.062401 47.361599 49.624802 56.315041 60.7752 65.20224 70.722237 75.149277 79.576317 88.551842 94.104958 99.978241 103.80912 106.0944 112.30992 117.86304 123.11808 125.86704 131.38704"
                        y="0"
                        id="tspan244">Initial Risk Assessment Review</tspan>
                </text>
            </g>
        </g>
        <g transform="translate(-37.5,93)" id="g258">
            <g clip-path="url(#clipPath3986)" id="g256">
                <text transform="matrix(1,0,0,-1,214.06,358.37)" style="fill:#404040;font-family:Calibri;font-size:11.04px;font-weight:bold" id="text254">
                    <tspan x="0 6.9552002 12.3648 16.195681 21.60528 26.03232 31.55232 35.383202 37.789921 44.00544 49.558559 54.813599 57.562561 63.082561 71.351517" y="0" id="tspan252">Dataset Review
                    </tspan>
                </text>
            </g>
        </g>
        <g transform="translate(-37.5,93)" id="g266">
            <g clip-path="url(#clipPath3998)" id="g264">
                <text transform="matrix(1,0,0,-1,287.76,358.37)" style="fill:#404040;font-family:Calibri;font-size:11.04px;font-weight:bold" id="text262">
                    <tspan x="0" y="0" id="tspan260">-</tspan>
                </text>
            </g>
        </g>
        <g transform="translate(-37.5,93)" id="g274">
            <g clip-path="url(#clipPath4010)" id="g272">
                <text transform="matrix(1,0,0,-1,293.64,358.37)" style="fill:#404040;font-family:Calibri;font-size:11.04px;font-weight:bold" id="text270">
                    <tspan x="0 7.4630399 13.32528 18.84528 24.729601 27.22464 34.17984 39.633598 43.464481 48.852001 51.347038 56.878078 62.398079 67.796638" y="0" id="tspan268">Open Data Team</tspan>
                </text>
            </g>
        </g>
        <g transform="translate(-37.5,93)" id="g282">
            <g clip-path="url(#clipPath4022)" id="g280">
                <text transform="matrix(1,0,0,-1,120.62,386.42)" style="fill:#404040;font-family:Calibri;font-size:11.04px;font-weight:bold" id="text278">
                    <tspan x="0 9.6048002 17.067841 19.56288 25.78944 29.74176 32.490719 38.010719 41.499359 44.237282 50.121601" y="0" id="tspan276">MO Briefing</tspan>
                </text>
            </g>
        </g>
        <g transform="translate(-37.5,93)" id="g290">
            <g clip-path="url(#clipPath4034)" id="g288">
                <text transform="matrix(1,0,0,-1,120.12,413.47)" style="fill:#404040;font-family:Calibri;font-size:11.04px;font-weight:bold" id="text286">
                    <tspan x="0 6.9552002 12.3648 16.195681 21.60528 26.03232 31.55232 35.383202 37.789921 43.6632 47.61552 53.135521 58.534081 62.36496 65.124962 71.009277" y="0" id="tspan284">Dataset Creation</tspan>
                </text>
            </g>
        </g>
        <g transform="translate(-37.5,93)" id="g298">
            <g clip-path="url(#clipPath4046)" id="g296">
                <text transform="matrix(1,0,0,-1,48.792,77.088)" style="fill:#595959;font-family:Calibri;font-size:11.04px;font-weight:bold" id="text294">
                    <tspan x="0" y="0" id="tspan292">0</tspan>
                </text>
            </g>
        </g>
        <g transform="translate(-37.5,93)" id="g306">
            <g clip-path="url(#clipPath4058)" id="g304">
                <text transform="matrix(1,0,0,-1,107.62,77.088)" style="fill:#595959;font-family:Calibri;font-size:11.04px;font-weight:bold" id="text302">
                    <tspan x="0" y="0" id="tspan300">2</tspan>
                </text>
            </g>
        </g>
        <g transform="translate(-37.5,93)" id="g314">
            <g clip-path="url(#clipPath4070)" id="g312">
                <text transform="matrix(1,0,0,-1,166.44,77.088)" style="fill:#595959;font-family:Calibri;font-size:11.04px;font-weight:bold" id="text310">
                    <tspan x="0" y="0" id="tspan308">4</tspan>
                </text>
            </g>
        </g>
        <g transform="translate(-37.5,93)" id="g322">
            <g clip-path="url(#clipPath4082)" id="g320">
                <text transform="matrix(1,0,0,-1,225.29,77.088)" style="fill:#595959;font-family:Calibri;font-size:11.04px;font-weight:bold" id="text318">
                    <tspan x="0" y="0" id="tspan316">6</tspan>
                </text>
            </g>
        </g>
        <g transform="translate(-37.5,93)" id="g330">
            <g clip-path="url(#clipPath4094)" id="g328">
                <text transform="matrix(1,0,0,-1,284.11,77.088)" style="fill:#595959;font-family:Calibri;font-size:11.04px;font-weight:bold" id="text326">
                    <tspan x="0" y="0" id="tspan324">8</tspan>
                </text>
            </g>
        </g>
        <g transform="translate(-37.5,93)" id="g338">
            <g clip-path="url(#clipPath4106)" id="g336">
                <text transform="matrix(1,0,0,-1,340.15,77.088)" style="fill:#595959;font-family:Calibri;font-size:11.04px;font-weight:bold" id="text334">
                    <tspan x="0 5.51998" y="0" id="tspan332">10</tspan>
                </text>
            </g>
        </g>
        <g transform="translate(-37.5,93)" id="g346">
            <g clip-path="url(#clipPath4118)" id="g344">
                <text transform="matrix(1,0,0,-1,399,77.088)" style="fill:#595959;font-family:Calibri;font-size:11.04px;font-weight:bold" id="text342">
                    <tspan x="0 5.51998" y="0" id="tspan340">12</tspan>
                </text>
            </g>
        </g>
        <g transform="translate(-37.5,93)" id="g354">
            <g clip-path="url(#clipPath4130)" id="g352">
                <text transform="matrix(1,0,0,-1,457.82,77.088)" style="fill:#595959;font-family:Calibri;font-size:11.04px;font-weight:bold" id="text350">
                    <tspan x="0 5.51998" y="0" id="tspan348">14</tspan>
                </text>
            </g>
        </g>
        <g transform="translate(-37.5,93)" id="g362">
            <g clip-path="url(#clipPath4142)" id="g360">
                <text transform="matrix(1,0,0,-1,516.65,77.088)" style="fill:#595959;font-family:Calibri;font-size:11.04px;font-weight:bold" id="text358">
                    <tspan x="0 5.51998" y="0" id="tspan356">16</tspan>
                </text>
            </g>
        </g>
        <g transform="translate(-37.5,93)" id="g370">
            <g clip-path="url(#clipPath4154)" id="g368">
                <text transform="matrix(1,0,0,-1,273.7,60.672)" style="fill:#595959;font-family:Calibri;font-size:11.04px;font-weight:bold" id="text366">
                    <tspan x="0 9.9600401 15.47096 20.98188" y="0" id="tspan364">Week</tspan>
                </text>
            </g>
        </g>
    </g>
</svg>
